<svg xmlns="http://www.w3.org/2000/svg" xmlns:xlink="http://www.w3.org/1999/xlink" width="500" zoomAndPan="magnify" viewBox="0 0 375 374.999991" height="500" preserveAspectRatio="xMidYMid meet" version="1.0"><defs><filter x="0%" y="0%" width="100%" height="100%" id="a1a0ec6b73"><feColorMatrix values="0 0 0 0 1 0 0 0 0 1 0 0 0 0 1 0 0 0 1 0" color-interpolation-filters="sRGB"/></filter><clipPath id="eb2edb3757"><path d="M 155.917969 122.105469 L 177.75 122.105469 L 177.75 138.398438 L 155.917969 138.398438 Z M 155.917969 122.105469 " clip-rule="nonzero"/></clipPath><clipPath id="5e2dbf15e6"><path d="M 176.25 138.375 C 153.523438 134.699219 154.648438 126.226562 157.425781 123.898438 C 160.800781 121.125 173.925781 121.726562 176.773438 124.800781 C 179.101562 127.351562 176.25 138.375 176.25 138.375 " clip-rule="nonzero"/></clipPath><mask id="b4f3b681c5"><g filter="url(#a1a0ec6b73)"><rect x="-37.5" width="450" fill="#000000" y="-37.499999" height="449.999989" fill-opacity="0.01"/></g></mask><clipPath id="dfc3fc8ea2"><path d="M 0.917969 0.105469 L 22.75 0.105469 L 22.75 16.398438 L 0.917969 16.398438 Z M 0.917969 0.105469 " clip-rule="nonzero"/></clipPath><clipPath id="1edb2a7bff"><path d="M 21.25 16.375 C -1.476562 12.699219 -0.351562 4.226562 2.425781 1.898438 C 5.800781 -0.875 18.925781 -0.273438 21.773438 2.800781 C 24.101562 5.351562 21.25 16.375 21.25 16.375 " clip-rule="nonzero"/></clipPath><clipPath id="4fbfed2755"><rect x="0" width="23" y="0" height="17"/></clipPath><clipPath id="6d2edc5b05"><path d="M 112.5 125.90625 L 262.5 125.90625 L 262.5 248.90625 L 112.5 248.90625 Z M 112.5 125.90625 " clip-rule="nonzero"/></clipPath></defs><g clip-path="url(#eb2edb3757)"><g clip-path="url(#5e2dbf15e6)"><g mask="url(#b4f3b681c5)"><g transform="matrix(1, 0, 0, 1, 155, 122)"><g clip-path="url(#4fbfed2755)"><g clip-path="url(#dfc3fc8ea2)"><g clip-path="url(#1edb2a7bff)"><rect x="-237.5" width="540" fill="#fff234" height="539.999987" y="-204.499998" fill-opacity="1"/></g></g></g></g></g></g></g><g clip-path="url(#6d2edc5b05)"><path fill="#7ed957" d="M 241.074219 141.972656 L 219.070312 141.972656 L 212.5625 133.882812 C 208.472656 128.816406 202.394531 125.90625 195.878906 125.90625 L 179.121094 125.90625 C 172.613281 125.90625 166.527344 128.816406 162.445312 133.882812 L 155.9375 141.972656 L 133.925781 141.972656 C 122.128906 141.972656 112.519531 151.578125 112.519531 163.375 L 112.519531 227.6875 C 112.519531 239.496094 122.128906 249.09375 133.925781 249.09375 L 241.074219 249.09375 C 252.882812 249.09375 262.480469 239.484375 262.480469 227.6875 L 262.480469 163.375 C 262.480469 151.578125 252.871094 141.972656 241.074219 141.972656 Z M 251.773438 227.6875 C 251.773438 233.585938 246.972656 238.386719 241.074219 238.386719 L 133.925781 238.386719 C 128.027344 238.386719 123.226562 233.585938 123.226562 227.6875 L 123.226562 163.375 C 123.226562 157.476562 128.027344 152.679688 133.925781 152.679688 L 158.488281 152.679688 C 160.105469 152.679688 161.636719 151.9375 162.65625 150.679688 L 170.785156 140.613281 C 172.824219 138.074219 175.863281 136.625 179.121094 136.625 L 195.886719 136.625 C 199.148438 136.625 202.1875 138.074219 204.226562 140.613281 L 212.34375 150.691406 C 213.363281 151.949219 214.894531 152.6875 216.511719 152.6875 L 241.074219 152.6875 C 246.972656 152.6875 251.773438 157.488281 251.773438 163.386719 Z M 187.5 158.046875 C 166.824219 158.046875 150.011719 174.863281 150.011719 195.539062 C 150.011719 216.210938 166.824219 233.027344 187.5 233.027344 C 208.175781 233.027344 224.988281 216.210938 224.988281 195.539062 C 224.988281 174.863281 208.175781 158.046875 187.5 158.046875 Z M 187.5 222.3125 C 172.734375 222.3125 160.71875 210.292969 160.71875 195.527344 C 160.71875 180.761719 172.734375 168.753906 187.5 168.753906 C 202.265625 168.753906 214.28125 180.773438 214.28125 195.539062 C 214.28125 210.304688 202.265625 222.3125 187.5 222.3125 Z M 187.5 222.3125 " fill-opacity="1" fill-rule="nonzero"/></g></svg>