<?xml version="1.0" encoding="UTF-8"?>
<svg xmlns="http://www.w3.org/2000/svg" xmlns:xlink="http://www.w3.org/1999/xlink" width="16px" height="20px" viewBox="0 0 16 20" version="1.1">
<g id="surface1">
<path style=" stroke:none;fill-rule:nonzero;fill:rgb(0%,0%,0%);fill-opacity:1;" d="M 15.492188 6.945312 C 15.378906 7.03125 13.367188 8.140625 13.367188 10.601562 C 13.367188 13.453125 15.925781 14.460938 16.003906 14.484375 C 15.992188 14.546875 15.59375 15.867188 14.652344 17.210938 C 13.808594 18.394531 12.929688 19.570312 11.59375 19.570312 C 10.257812 19.570312 9.914062 18.816406 8.371094 18.816406 C 6.867188 18.816406 6.335938 19.597656 5.109375 19.597656 C 3.886719 19.597656 3.035156 18.503906 2.054688 17.160156 C 0.917969 15.582031 0 13.128906 0 10.804688 C 0 7.070312 2.484375 5.089844 4.929688 5.089844 C 6.226562 5.089844 7.3125 5.925781 8.128906 5.925781 C 8.902344 5.925781 10.117188 5.039062 11.59375 5.039062 C 12.152344 5.039062 14.164062 5.089844 15.492188 6.945312 Z M 10.890625 3.460938 C 11.503906 2.753906 11.933594 1.769531 11.933594 0.785156 C 11.933594 0.648438 11.921875 0.511719 11.898438 0.398438 C 10.902344 0.4375 9.71875 1.046875 9.007812 1.855469 C 8.445312 2.476562 7.921875 3.460938 7.921875 4.457031 C 7.921875 4.605469 7.949219 4.757812 7.960938 4.804688 C 8.023438 4.816406 8.125 4.828125 8.226562 4.828125 C 9.121094 4.828125 10.242188 4.246094 10.890625 3.460938 Z M 10.890625 3.460938 "/>
</g>
</svg>
