<svg xmlns="http://www.w3.org/2000/svg" xmlns:xlink="http://www.w3.org/1999/xlink" width="500" zoomAndPan="magnify" viewBox="0 0 375 374.999991" height="500" preserveAspectRatio="xMidYMid meet" version="1.0"><defs><filter x="0%" y="0%" width="100%" height="100%" id="fe86cda034"><feColorMatrix values="0 0 0 0 1 0 0 0 0 1 0 0 0 0 1 0 0 0 1 0" color-interpolation-filters="sRGB"/></filter><clipPath id="54ccb8f87e"><path d="M 105 112.761719 L 254 112.761719 L 254 232.761719 L 105 232.761719 Z M 105 112.761719 " clip-rule="nonzero"/></clipPath><clipPath id="d4581a0f39"><path d="M 168.546875 166.746094 L 188.253906 166.746094 L 188.253906 183.777344 L 168.546875 183.777344 Z M 168.546875 166.746094 " clip-rule="nonzero"/></clipPath><clipPath id="68a4eb196a"><path d="M 188.175781 175.050781 C 177.898438 187.199219 169.648438 183.898438 168.675781 180.976562 C 167.625 177.75 173.773438 167.550781 177.300781 166.875 C 180.449219 166.273438 188.175781 175.050781 188.175781 175.050781 " clip-rule="nonzero"/></clipPath><mask id="9831696263"><g filter="url(#fe86cda034)"><rect x="-37.5" width="450" fill="#000000" y="-37.499999" height="449.999989" fill-opacity="0.01"/></g></mask><clipPath id="1908198b99"><path d="M 0.546875 0.746094 L 20.253906 0.746094 L 20.253906 17.777344 L 0.546875 17.777344 Z M 0.546875 0.746094 " clip-rule="nonzero"/></clipPath><clipPath id="a6fb6c3b59"><path d="M 20.175781 9.050781 C 9.898438 21.199219 1.648438 17.898438 0.675781 14.976562 C -0.375 11.75 5.773438 1.550781 9.300781 0.875 C 12.449219 0.273438 20.175781 9.050781 20.175781 9.050781 " clip-rule="nonzero"/></clipPath><clipPath id="f2f5acc8bf"><rect x="0" width="21" y="0" height="18"/></clipPath><clipPath id="43c14c1968"><path d="M 155.917969 122.105469 L 177.75 122.105469 L 177.75 138.398438 L 155.917969 138.398438 Z M 155.917969 122.105469 " clip-rule="nonzero"/></clipPath><clipPath id="62b27be44f"><path d="M 176.25 138.375 C 153.523438 134.699219 154.648438 126.226562 157.425781 123.898438 C 160.800781 121.125 173.925781 121.726562 176.773438 124.800781 C 179.101562 127.351562 176.25 138.375 176.25 138.375 " clip-rule="nonzero"/></clipPath><mask id="1db7dc5e6b"><g filter="url(#fe86cda034)"><rect x="-37.5" width="450" fill="#000000" y="-37.499999" height="449.999989" fill-opacity="0.01"/></g></mask><clipPath id="da46d66ea0"><path d="M 0.917969 0.105469 L 22.75 0.105469 L 22.75 16.398438 L 0.917969 16.398438 Z M 0.917969 0.105469 " clip-rule="nonzero"/></clipPath><clipPath id="9668e2d1ff"><path d="M 21.25 16.375 C -1.476562 12.699219 -0.351562 4.226562 2.425781 1.898438 C 5.800781 -0.875 18.925781 -0.273438 21.773438 2.800781 C 24.101562 5.351562 21.25 16.375 21.25 16.375 " clip-rule="nonzero"/></clipPath><clipPath id="0e3c0023e0"><rect x="0" width="23" y="0" height="17"/></clipPath></defs><g clip-path="url(#54ccb8f87e)"><path fill="#7ed957" d="M 253.808594 117.1875 C 253.910156 116.8125 253.941406 116.429688 253.910156 116.042969 C 253.894531 115.886719 253.992188 115.746094 253.953125 115.589844 C 253.816406 115.105469 253.585938 114.667969 253.265625 114.277344 C 253.226562 114.230469 253.242188 114.164062 253.203125 114.117188 C 253.144531 114.042969 253.035156 114.046875 252.972656 113.976562 C 252.460938 113.425781 251.84375 113.058594 251.117188 112.871094 C 251.078125 112.863281 251.039062 112.863281 251 112.855469 C 250.773438 112.792969 250.546875 112.765625 250.3125 112.765625 L 108.777344 113.628906 C 108.414062 113.632812 108.054688 113.6875 107.707031 113.792969 C 107.355469 113.902344 107.027344 114.058594 106.726562 114.261719 C 106.421875 114.464844 106.152344 114.707031 105.921875 114.992188 C 105.6875 115.273438 105.503906 115.585938 105.363281 115.921875 C 105.222656 116.261719 105.132812 116.609375 105.097656 116.976562 C 105.058594 117.339844 105.074219 117.699219 105.144531 118.058594 C 105.214844 118.417969 105.335938 118.761719 105.503906 119.085938 C 105.675781 119.40625 105.890625 119.699219 106.144531 119.960938 L 152.664062 167.328125 L 157.734375 228.992188 C 157.765625 229.363281 157.851562 229.722656 157.992188 230.070312 C 158.128906 230.417969 158.316406 230.734375 158.550781 231.023438 C 158.785156 231.316406 159.058594 231.566406 159.367188 231.773438 C 159.679688 231.980469 160.011719 232.140625 160.371094 232.246094 C 160.726562 232.355469 161.09375 232.410156 161.464844 232.40625 C 161.839844 232.40625 162.203125 232.347656 162.558594 232.238281 C 162.917969 232.125 163.25 231.964844 163.554688 231.753906 C 163.863281 231.542969 164.132812 231.289062 164.367188 230.996094 L 253.253906 118.804688 C 253.355469 118.675781 253.320312 118.507812 253.402344 118.371094 C 253.613281 118 253.746094 117.609375 253.808594 117.1875 Z M 235 120.308594 L 166.644531 156.058594 L 156.988281 161.105469 L 117.625 121.023438 Z M 160.179688 167.84375 L 198.578125 147.761719 L 236.535156 127.914062 L 164.386719 218.976562 Z M 160.179688 167.84375 " fill-opacity="1" fill-rule="nonzero"/></g><g clip-path="url(#d4581a0f39)"><g clip-path="url(#68a4eb196a)"><g mask="url(#9831696263)"><g transform="matrix(1, 0, 0, 1, 168, 166)"><g clip-path="url(#f2f5acc8bf)"><g clip-path="url(#1908198b99)"><g clip-path="url(#a6fb6c3b59)"><rect x="-250.5" width="540" fill="#fff234" height="539.999987" y="-248.499998" fill-opacity="1"/></g></g></g></g></g></g></g><g clip-path="url(#43c14c1968)"><g clip-path="url(#62b27be44f)"><g mask="url(#1db7dc5e6b)"><g transform="matrix(1, 0, 0, 1, 155, 122)"><g clip-path="url(#0e3c0023e0)"><g clip-path="url(#da46d66ea0)"><g clip-path="url(#9668e2d1ff)"><rect x="-237.5" width="540" fill="#fff234" height="539.999987" y="-204.499998" fill-opacity="1"/></g></g></g></g></g></g></g></svg>